<?xml version="1.0" encoding="UTF-8"?>
<svg xmlns="http://www.w3.org/2000/svg" xmlns:xlink="http://www.w3.org/1999/xlink" width="375pt" height="149.999998pt" viewBox="0 0 375 149.999998" version="1.2">
<defs>
<clipPath id="clip1">
  <path d="M 9 52 L 103 52 L 103 125 L 9 125 Z M 9 52 "/>
</clipPath>
<clipPath id="clip2">
  <path d="M -19.335938 66.871094 L 67.683594 6.457031 L 131.566406 98.480469 L 44.546875 158.894531 Z M -19.335938 66.871094 "/>
</clipPath>
<clipPath id="clip3">
  <path d="M -19.335938 66.871094 L 67.683594 6.457031 L 131.566406 98.480469 L 44.546875 158.894531 Z M -19.335938 66.871094 "/>
</clipPath>
<clipPath id="clip4">
  <path d="M 81 19 L 108 19 L 108 63 L 81 63 Z M 81 19 "/>
</clipPath>
<clipPath id="clip5">
  <path d="M 67.984375 48.253906 L 82.894531 16.246094 L 113.800781 30.644531 L 98.886719 62.652344 Z M 67.984375 48.253906 "/>
</clipPath>
<clipPath id="clip6">
  <path d="M 67.984375 48.253906 L 82.894531 16.246094 L 113.800781 30.644531 L 98.886719 62.652344 Z M 67.984375 48.253906 "/>
</clipPath>
<clipPath id="clip7">
  <path d="M 92 21 L 94 21 L 94 32 L 92 32 Z M 92 21 "/>
</clipPath>
<clipPath id="clip8">
  <path d="M 67.984375 48.253906 L 82.894531 16.246094 L 113.800781 30.644531 L 98.886719 62.652344 Z M 67.984375 48.253906 "/>
</clipPath>
<clipPath id="clip9">
  <path d="M 67.984375 48.253906 L 82.894531 16.246094 L 113.800781 30.644531 L 98.886719 62.652344 Z M 67.984375 48.253906 "/>
</clipPath>
<clipPath id="clip10">
  <path d="M 100 40 L 108 40 L 108 53 L 100 53 Z M 100 40 "/>
</clipPath>
<clipPath id="clip11">
  <path d="M 67.984375 48.253906 L 82.894531 16.246094 L 113.800781 30.644531 L 98.886719 62.652344 Z M 67.984375 48.253906 "/>
</clipPath>
<clipPath id="clip12">
  <path d="M 67.984375 48.253906 L 82.894531 16.246094 L 113.800781 30.644531 L 98.886719 62.652344 Z M 67.984375 48.253906 "/>
</clipPath>
<clipPath id="clip13">
  <path d="M 81 19 L 90 19 L 90 28 L 81 28 Z M 81 19 "/>
</clipPath>
<clipPath id="clip14">
  <path d="M 67.984375 48.253906 L 82.894531 16.246094 L 113.800781 30.644531 L 98.886719 62.652344 Z M 67.984375 48.253906 "/>
</clipPath>
<clipPath id="clip15">
  <path d="M 67.984375 48.253906 L 82.894531 16.246094 L 113.800781 30.644531 L 98.886719 62.652344 Z M 67.984375 48.253906 "/>
</clipPath>
<clipPath id="clip16">
  <path d="M 91 47 L 101 47 L 101 54 L 91 54 Z M 91 47 "/>
</clipPath>
<clipPath id="clip17">
  <path d="M 67.984375 48.253906 L 82.894531 16.246094 L 113.800781 30.644531 L 98.886719 62.652344 Z M 67.984375 48.253906 "/>
</clipPath>
<clipPath id="clip18">
  <path d="M 67.984375 48.253906 L 82.894531 16.246094 L 113.800781 30.644531 L 98.886719 62.652344 Z M 67.984375 48.253906 "/>
</clipPath>
<clipPath id="clip19">
  <path d="M 96 27 L 99 27 L 99 38 L 96 38 Z M 96 27 "/>
</clipPath>
<clipPath id="clip20">
  <path d="M 67.984375 48.253906 L 82.894531 16.246094 L 113.800781 30.644531 L 98.886719 62.652344 Z M 67.984375 48.253906 "/>
</clipPath>
<clipPath id="clip21">
  <path d="M 67.984375 48.253906 L 82.894531 16.246094 L 113.800781 30.644531 L 98.886719 62.652344 Z M 67.984375 48.253906 "/>
</clipPath>
<clipPath id="clip22">
  <path d="M 84 28 L 94 28 L 94 32 L 84 32 Z M 84 28 "/>
</clipPath>
<clipPath id="clip23">
  <path d="M 67.984375 48.253906 L 82.894531 16.246094 L 113.800781 30.644531 L 98.886719 62.652344 Z M 67.984375 48.253906 "/>
</clipPath>
<clipPath id="clip24">
  <path d="M 67.984375 48.253906 L 82.894531 16.246094 L 113.800781 30.644531 L 98.886719 62.652344 Z M 67.984375 48.253906 "/>
</clipPath>
<clipPath id="clip25">
  <path d="M 99 32 L 103 32 L 103 45 L 99 45 Z M 99 32 "/>
</clipPath>
<clipPath id="clip26">
  <path d="M 67.984375 48.253906 L 82.894531 16.246094 L 113.800781 30.644531 L 98.886719 62.652344 Z M 67.984375 48.253906 "/>
</clipPath>
<clipPath id="clip27">
  <path d="M 67.984375 48.253906 L 82.894531 16.246094 L 113.800781 30.644531 L 98.886719 62.652344 Z M 67.984375 48.253906 "/>
</clipPath>
<clipPath id="clip28">
  <path d="M 86 34 L 97 34 L 97 39 L 86 39 Z M 86 34 "/>
</clipPath>
<clipPath id="clip29">
  <path d="M 67.984375 48.253906 L 82.894531 16.246094 L 113.800781 30.644531 L 98.886719 62.652344 Z M 67.984375 48.253906 "/>
</clipPath>
<clipPath id="clip30">
  <path d="M 67.984375 48.253906 L 82.894531 16.246094 L 113.800781 30.644531 L 98.886719 62.652344 Z M 67.984375 48.253906 "/>
</clipPath>
<clipPath id="clip31">
  <path d="M 90 41 L 99 41 L 99 45 L 90 45 Z M 90 41 "/>
</clipPath>
<clipPath id="clip32">
  <path d="M 67.984375 48.253906 L 82.894531 16.246094 L 113.800781 30.644531 L 98.886719 62.652344 Z M 67.984375 48.253906 "/>
</clipPath>
<clipPath id="clip33">
  <path d="M 67.984375 48.253906 L 82.894531 16.246094 L 113.800781 30.644531 L 98.886719 62.652344 Z M 67.984375 48.253906 "/>
</clipPath>
</defs>
<g id="surface1">
<g clip-path="url(#clip1)" clip-rule="nonzero">
<g clip-path="url(#clip2)" clip-rule="nonzero">
<g clip-path="url(#clip3)" clip-rule="nonzero">
<path style=" stroke:none;fill-rule:evenodd;fill:rgb(32.159424%,44.309998%,100%);fill-opacity:1;" d="M 19.859375 118.636719 C 19.554688 118.195312 20.6875 117.808594 22.167969 117.636719 C 16.417969 117.207031 12.167969 112.164062 16.429688 111.820312 C 7.964844 106.183594 5.945312 96.574219 20.433594 106.925781 C 32.71875 115.691406 42.597656 125.019531 49.902344 108.386719 C 50.785156 106.414062 51.5625 104.21875 52.265625 101.917969 C 61.832031 101.359375 70.617188 96.367188 74.238281 87.320312 C 67.355469 98.730469 51.179688 101.867188 38.195312 95.703125 C 31.507812 92.550781 29.890625 87.695312 34.050781 84.253906 C 20.734375 80.128906 15.367188 69.878906 22.882812 69.539062 C 9.839844 57.882812 12.734375 44.613281 29.40625 57.320312 C 38.835938 64.496094 49.949219 70.199219 59.578125 73.621094 C 61.324219 68.285156 63.398438 63.78125 66.34375 61.179688 C 71.644531 56.496094 82.632812 51.433594 90.441406 58.074219 C 94.28125 56.613281 98.300781 56.136719 102.546875 56.707031 C 97.050781 59.164062 93.949219 61.320312 93.300781 63.125 C 93.433594 72.535156 92.5 80.773438 90.535156 87.816406 C 77.160156 136.261719 24.050781 124.671875 19.859375 118.636719 "/>
</g>
</g>
</g>
<g clip-path="url(#clip4)" clip-rule="nonzero">
<g clip-path="url(#clip5)" clip-rule="nonzero">
<g clip-path="url(#clip6)" clip-rule="nonzero">
<path style=" stroke:none;fill-rule:nonzero;fill:rgb(32.159424%,44.309998%,100%);fill-opacity:1;" d="M 98.667969 44.050781 C 98.496094 43.957031 98.375 43.820312 98.242188 43.695312 C 97.703125 43.183594 97.105469 42.753906 96.449219 42.402344 C 95.863281 42.082031 95.238281 41.941406 94.566406 41.984375 C 93.363281 42.066406 92.179688 41.925781 91.007812 41.652344 C 90.730469 41.585938 90.46875 41.472656 90.207031 41.367188 C 90.140625 41.339844 90.070312 41.316406 90 41.289062 C 89.9375 41.265625 89.875 41.269531 89.832031 41.320312 C 89.773438 41.386719 89.785156 41.464844 89.839844 41.523438 C 90.214844 41.917969 90.449219 42.425781 90.835938 42.808594 C 91.414062 43.382812 92.050781 43.878906 92.789062 44.242188 C 93.890625 44.78125 95.03125 44.949219 96.242188 44.753906 C 96.835938 44.660156 97.4375 44.644531 98.042969 44.75 C 98.398438 44.8125 98.667969 45.03125 98.984375 45.160156 C 99.0625 45.191406 99.082031 45.265625 99.101562 45.339844 C 99.730469 47.433594 100.113281 49.570312 100.152344 51.765625 C 100.152344 51.796875 100.152344 51.839844 100.105469 51.855469 C 100.042969 51.867188 100.023438 51.816406 100 51.777344 C 99.492188 51 98.769531 50.480469 97.980469 50.03125 C 97.019531 49.484375 96.015625 49.0625 94.929688 48.832031 C 94.078125 48.648438 93.308594 48.253906 92.582031 47.777344 C 92.480469 47.710938 92.394531 47.621094 92.304688 47.539062 C 92.238281 47.480469 92.175781 47.417969 92.109375 47.367188 C 92.027344 47.3125 91.933594 47.261719 91.835938 47.328125 C 91.734375 47.398438 91.746094 47.503906 91.78125 47.597656 C 91.886719 47.875 91.976562 48.160156 92.113281 48.421875 C 92.570312 49.292969 93.164062 50.0625 93.863281 50.75 C 94.84375 51.71875 96.019531 52.246094 97.410156 52.242188 C 97.582031 52.242188 97.757812 52.238281 97.929688 52.253906 C 98.363281 52.289062 98.785156 52.371094 99.152344 52.625 C 99.402344 52.800781 99.652344 52.984375 99.910156 53.148438 C 100.113281 53.273438 100.171875 53.4375 100.164062 53.675781 C 100.128906 54.878906 99.972656 56.066406 99.773438 57.253906 C 99.636719 58.058594 99.480469 58.859375 99.34375 59.667969 C 99.214844 60.429688 98.980469 61.15625 98.628906 61.847656 C 98.539062 62.019531 98.472656 62.199219 98.472656 62.457031 C 98.734375 62.238281 98.859375 62.003906 98.996094 61.773438 C 99.367188 61.148438 99.554688 60.453125 99.691406 59.746094 C 100.019531 58.105469 100.34375 56.464844 100.488281 54.796875 C 100.546875 54.15625 100.578125 53.511719 100.554688 52.871094 C 100.546875 52.601562 100.652344 52.476562 100.875 52.359375 C 102.664062 51.394531 104.226562 50.175781 105.363281 48.449219 C 105.84375 47.71875 106.105469 46.917969 106.289062 46.078125 C 106.605469 44.585938 106.855469 43.085938 107.082031 41.578125 C 107.125 41.285156 107.210938 41 107.277344 40.710938 C 107.300781 40.613281 107.320312 40.515625 107.335938 40.417969 C 107.347656 40.339844 107.316406 40.269531 107.238281 40.238281 C 107.179688 40.210938 107.113281 40.226562 107.066406 40.273438 C 106.972656 40.367188 106.875 40.464844 106.792969 40.574219 C 106.390625 41.09375 105.984375 41.605469 105.601562 42.140625 C 104.898438 43.117188 104.183594 44.082031 103.414062 45.003906 C 102.492188 46.109375 101.898438 47.378906 101.507812 48.753906 C 101.269531 49.585938 100.964844 50.402344 100.824219 51.261719 C 100.792969 51.476562 100.730469 51.691406 100.625 51.886719 C 100.5 51.851562 100.546875 51.757812 100.542969 51.695312 C 100.492188 49.363281 100.050781 47.097656 99.34375 44.886719 C 99.21875 44.5 99.292969 44.214844 99.550781 43.941406 C 99.59375 43.894531 99.632812 43.847656 99.679688 43.808594 C 100.761719 42.898438 101.5 41.726562 102.210938 40.53125 C 102.589844 39.882812 102.875 39.203125 103.011719 38.464844 C 103.0625 38.207031 103.074219 37.945312 103.066406 37.6875 C 103.039062 36.933594 103.039062 36.179688 102.972656 35.425781 C 102.910156 34.722656 102.953125 34.015625 103.007812 33.3125 C 103.015625 33.164062 103.027344 33.015625 103.023438 32.867188 C 103.023438 32.746094 103.046875 32.597656 102.890625 32.554688 C 102.714844 32.507812 102.667969 32.675781 102.605469 32.785156 C 102.40625 33.128906 102.21875 33.480469 102.027344 33.828125 C 101.246094 35.25 100.628906 36.753906 99.96875 38.238281 C 99.679688 38.886719 99.507812 39.574219 99.457031 40.285156 C 99.414062 40.875 99.355469 41.46875 99.367188 42.0625 C 99.378906 42.628906 99.199219 43.160156 99.082031 43.699219 C 98.9375 43.6875 98.945312 43.578125 98.925781 43.507812 C 98.382812 41.796875 97.734375 40.125 96.996094 38.492188 C 96.9375 38.367188 96.941406 38.242188 96.945312 38.105469 C 96.957031 37.109375 97.449219 36.277344 97.84375 35.414062 C 98.242188 34.53125 98.613281 33.640625 98.835938 32.695312 C 99.035156 31.839844 99.066406 30.980469 98.988281 30.113281 C 98.898438 29.109375 98.632812 28.140625 98.441406 27.160156 C 98.433594 27.121094 98.421875 27.085938 98.410156 27.050781 C 98.371094 26.933594 98.332031 26.804688 98.175781 26.804688 C 98.035156 26.808594 97.996094 26.925781 97.957031 27.03125 C 97.660156 27.820312 97.234375 28.550781 96.90625 29.328125 C 96.640625 29.960938 96.46875 30.617188 96.417969 31.304688 C 96.359375 32.082031 96.300781 32.859375 96.234375 33.636719 C 96.179688 34.285156 96.25 34.921875 96.40625 35.550781 C 96.542969 36.109375 96.515625 36.667969 96.46875 37.242188 C 96.355469 37.199219 96.339844 37.105469 96.304688 37.03125 C 95.472656 35.292969 94.511719 33.621094 93.5 31.984375 C 93.328125 31.707031 93.378906 31.503906 93.542969 31.292969 C 93.691406 31.101562 93.785156 30.890625 93.875 30.671875 C 93.960938 30.453125 94.046875 30.230469 94.15625 30.023438 C 94.503906 29.371094 94.691406 28.664062 94.808594 27.941406 C 95.011719 26.695312 94.804688 25.488281 94.308594 24.347656 C 93.859375 23.316406 93.441406 22.277344 93.105469 21.203125 C 93.070312 21.09375 93.039062 20.972656 92.898438 20.976562 C 92.761719 20.976562 92.726562 21.097656 92.6875 21.203125 C 92.53125 21.664062 92.46875 22.144531 92.398438 22.621094 C 92.164062 24.179688 92.09375 25.75 92.238281 27.320312 C 92.300781 27.964844 92.453125 28.589844 92.644531 29.203125 C 92.839844 29.832031 92.929688 30.476562 93.050781 31.117188 C 92.972656 31.148438 92.949219 31.09375 92.925781 31.054688 C 92.039062 29.746094 91.035156 28.527344 89.996094 27.339844 C 89.851562 27.175781 89.757812 27 89.707031 26.789062 C 89.574219 26.261719 89.445312 25.734375 89.300781 25.207031 C 88.804688 23.414062 87.734375 22.039062 86.234375 20.988281 C 85.992188 20.820312 85.722656 20.6875 85.453125 20.570312 C 84.355469 20.09375 83.25 19.636719 82.125 19.230469 C 81.957031 19.171875 81.769531 19.042969 81.605469 19.203125 C 81.441406 19.371094 81.589844 19.550781 81.648438 19.71875 C 81.660156 19.753906 81.675781 19.785156 81.6875 19.820312 C 82.5 22.117188 84.035156 23.820312 86.007812 25.167969 C 86.199219 25.300781 86.390625 25.433594 86.574219 25.578125 C 87.089844 25.984375 87.609375 26.371094 88.203125 26.65625 C 88.492188 26.796875 88.75 26.996094 88.988281 27.207031 C 89.121094 27.324219 89.269531 27.425781 89.449219 27.410156 C 89.589844 27.394531 89.648438 27.476562 89.722656 27.558594 C 90.65625 28.644531 91.566406 29.746094 92.386719 30.921875 C 92.414062 30.960938 92.433594 31.003906 92.484375 31.082031 C 92.320312 31.066406 92.242188 30.976562 92.148438 30.914062 C 91.457031 30.445312 90.777344 29.957031 90.039062 29.550781 C 89.117188 29.042969 88.132812 28.765625 87.09375 28.644531 C 86.140625 28.53125 85.175781 28.53125 84.226562 28.382812 C 84.1875 28.378906 84.152344 28.375 84.113281 28.375 C 83.992188 28.382812 83.851562 28.367188 83.789062 28.5 C 83.730469 28.625 83.84375 28.703125 83.90625 28.789062 C 83.980469 28.886719 84.054688 28.984375 84.125 29.085938 C 84.964844 30.273438 86.082031 31.097656 87.457031 31.535156 C 88.136719 31.75 88.832031 31.921875 89.554688 31.957031 C 89.859375 31.972656 90.164062 32.027344 90.472656 32.0625 C 90.988281 32.125 91.503906 32.113281 92.015625 32.011719 C 92.199219 31.972656 92.390625 31.976562 92.5625 31.917969 C 92.917969 31.796875 93.082031 31.964844 93.253906 32.253906 C 94.179688 33.828125 95.105469 35.402344 95.902344 37.054688 C 95.960938 37.175781 96.039062 37.285156 96.066406 37.476562 C 95.9375 37.394531 95.828125 37.339844 95.730469 37.265625 C 94.9375 36.675781 94.0625 36.21875 93.195312 35.753906 C 92.5 35.382812 91.746094 35.210938 90.960938 35.167969 C 90.113281 35.121094 89.257812 35.160156 88.414062 35.046875 C 88.058594 35 87.707031 34.957031 87.359375 34.859375 C 87.242188 34.824219 87.117188 34.808594 86.996094 34.808594 C 86.765625 34.804688 86.683594 34.949219 86.792969 35.144531 C 86.828125 35.207031 86.878906 35.265625 86.929688 35.320312 C 87.847656 36.285156 88.890625 37.078125 90.121094 37.609375 C 90.390625 37.722656 90.675781 37.804688 90.96875 37.859375 C 91.988281 38.058594 93.019531 38.136719 94.054688 38.109375 C 94.792969 38.09375 95.503906 38.195312 96.199219 38.445312 C 96.503906 38.554688 96.710938 38.71875 96.847656 39.035156 C 97.503906 40.558594 98.109375 42.097656 98.597656 43.683594 C 98.632812 43.796875 98.699219 43.90625 98.667969 44.050781 "/>
</g>
</g>
</g>
<g clip-path="url(#clip7)" clip-rule="nonzero">
<g clip-path="url(#clip8)" clip-rule="nonzero">
<g clip-path="url(#clip9)" clip-rule="nonzero">
<path style=" stroke:none;fill-rule:nonzero;fill:rgb(54.899597%,32.159424%,100%);fill-opacity:1;" d="M 93.285156 31.789062 C 93.386719 31.761719 93.367188 31.671875 93.363281 31.609375 C 93.335938 31.144531 93.445312 30.699219 93.5 30.246094 C 93.648438 29.046875 93.644531 27.851562 93.550781 26.652344 C 93.546875 26.578125 93.542969 26.503906 93.527344 26.429688 C 93.1875 24.804688 93.117188 23.148438 93.042969 21.492188 C 93.042969 21.453125 93.035156 21.417969 93.023438 21.382812 C 93.015625 21.363281 92.992188 21.351562 92.960938 21.320312 C 92.828125 21.414062 92.867188 21.5625 92.871094 21.683594 C 92.875 22.339844 92.882812 22.996094 92.949219 23.648438 C 92.988281 24.03125 93.023438 24.410156 93.027344 24.796875 C 93.03125 25.144531 93.082031 25.484375 93.15625 25.824219 C 93.324219 26.578125 93.375 27.339844 93.347656 28.109375 C 93.328125 28.753906 93.386719 29.398438 93.289062 30.039062 C 93.25 30.292969 93.230469 30.554688 93.179688 30.808594 C 93.117188 31.105469 93.160156 31.398438 93.191406 31.695312 C 93.199219 31.738281 93.21875 31.792969 93.285156 31.789062 "/>
</g>
</g>
</g>
<g clip-path="url(#clip10)" clip-rule="nonzero">
<g clip-path="url(#clip11)" clip-rule="nonzero">
<g clip-path="url(#clip12)" clip-rule="nonzero">
<path style=" stroke:none;fill-rule:nonzero;fill:rgb(54.899597%,32.159424%,100%);fill-opacity:1;" d="M 100.628906 52.417969 C 100.875 52.3125 101.039062 52.117188 101.207031 51.921875 C 101.519531 51.554688 101.753906 51.128906 102.019531 50.726562 C 102.421875 50.117188 102.882812 49.550781 103.265625 48.925781 C 103.832031 47.992188 104.34375 47.035156 104.734375 46.015625 C 105.078125 45.125 105.363281 44.214844 105.796875 43.359375 C 106.152344 42.652344 106.457031 41.921875 106.890625 41.253906 C 107.042969 41.015625 107.140625 40.742188 107.257812 40.488281 C 107.164062 40.441406 107.144531 40.476562 107.125 40.507812 C 106.417969 41.742188 105.753906 43 105.207031 44.316406 C 104.972656 44.875 104.753906 45.441406 104.542969 46.007812 C 104.054688 47.304688 103.371094 48.492188 102.597656 49.628906 C 102.234375 50.160156 101.855469 50.683594 101.523438 51.234375 C 101.269531 51.660156 100.941406 52.027344 100.628906 52.417969 "/>
</g>
</g>
</g>
<g clip-path="url(#clip13)" clip-rule="nonzero">
<g clip-path="url(#clip14)" clip-rule="nonzero">
<g clip-path="url(#clip15)" clip-rule="nonzero">
<path style=" stroke:none;fill-rule:nonzero;fill:rgb(54.899597%,32.159424%,100%);fill-opacity:1;" d="M 89.554688 27.132812 C 89.5625 27.09375 89.570312 27.078125 89.5625 27.070312 C 89.164062 26.46875 88.851562 25.800781 88.320312 25.289062 C 87.585938 24.582031 86.855469 23.875 86.082031 23.203125 C 84.757812 22.046875 83.445312 20.871094 82.226562 19.601562 C 82.140625 19.507812 82.074219 19.375 81.917969 19.371094 C 81.863281 19.488281 81.945312 19.550781 81.996094 19.609375 C 82.191406 19.832031 82.378906 20.066406 82.589844 20.269531 C 83.25 20.910156 83.925781 21.539062 84.601562 22.167969 C 85.757812 23.234375 87.015625 24.191406 88.101562 25.335938 C 88.382812 25.628906 88.652344 25.929688 88.851562 26.292969 C 88.988281 26.542969 89.164062 26.765625 89.339844 26.988281 C 89.386719 27.050781 89.429688 27.136719 89.554688 27.132812 "/>
</g>
</g>
</g>
<g clip-path="url(#clip16)" clip-rule="nonzero">
<g clip-path="url(#clip17)" clip-rule="nonzero">
<g clip-path="url(#clip18)" clip-rule="nonzero">
<path style=" stroke:none;fill-rule:nonzero;fill:rgb(54.899597%,32.159424%,100%);fill-opacity:1;" d="M 100.296875 53.210938 C 100.25 52.976562 100.125 52.808594 99.988281 52.648438 C 99.199219 51.707031 98.226562 51.058594 97.027344 50.746094 C 95.871094 50.441406 94.835938 49.886719 93.851562 49.210938 C 93.1875 48.757812 92.65625 48.1875 92.144531 47.589844 C 92.09375 47.527344 92.066406 47.433594 91.941406 47.421875 C 91.902344 47.542969 91.980469 47.632812 92.039062 47.707031 C 92.464844 48.269531 92.886719 48.828125 93.507812 49.199219 C 93.847656 49.402344 94.164062 49.636719 94.484375 49.863281 C 95.265625 50.40625 96.148438 50.714844 97.046875 50.988281 C 97.898438 51.242188 98.667969 51.636719 99.3125 52.257812 C 99.601562 52.539062 99.917969 52.800781 100.144531 53.144531 C 100.167969 53.1875 100.203125 53.222656 100.296875 53.210938 "/>
</g>
</g>
</g>
<g clip-path="url(#clip19)" clip-rule="nonzero">
<g clip-path="url(#clip20)" clip-rule="nonzero">
<g clip-path="url(#clip21)" clip-rule="nonzero">
<path style=" stroke:none;fill-rule:nonzero;fill:rgb(54.899597%,32.159424%,100%);fill-opacity:1;" d="M 98.230469 27.261719 C 98.007812 27.644531 97.957031 28.039062 97.875 28.417969 C 97.722656 29.09375 97.648438 29.78125 97.59375 30.472656 C 97.496094 31.714844 97.367188 32.957031 97.238281 34.199219 C 97.210938 34.46875 97.125 34.730469 97.066406 34.996094 C 96.953125 35.515625 96.851562 36.035156 96.851562 36.574219 C 96.851562 36.890625 96.789062 37.210938 96.726562 37.527344 C 96.699219 37.648438 96.640625 37.78125 96.734375 37.957031 C 96.898438 37.78125 96.933594 37.589844 96.960938 37.40625 C 97.019531 37.027344 97.085938 36.648438 97.074219 36.261719 C 97.0625 35.898438 97.136719 35.542969 97.234375 35.203125 C 97.449219 34.484375 97.492188 33.742188 97.558594 33.003906 C 97.640625 32.070312 97.71875 31.132812 97.785156 30.199219 C 97.847656 29.304688 98.054688 28.441406 98.246094 27.570312 C 98.265625 27.492188 98.308594 27.410156 98.230469 27.261719 "/>
</g>
</g>
</g>
<g clip-path="url(#clip22)" clip-rule="nonzero">
<g clip-path="url(#clip23)" clip-rule="nonzero">
<g clip-path="url(#clip24)" clip-rule="nonzero">
<path style=" stroke:none;fill-rule:nonzero;fill:rgb(54.899597%,32.159424%,100%);fill-opacity:1;" d="M 84.164062 28.617188 C 84.144531 28.6875 84.179688 28.726562 84.21875 28.757812 C 85.285156 29.582031 86.429688 30.273438 87.691406 30.75 C 88.589844 31.089844 89.542969 31.132812 90.484375 31.210938 C 90.808594 31.238281 91.121094 31.277344 91.425781 31.382812 C 91.859375 31.523438 92.296875 31.652344 92.730469 31.785156 C 92.789062 31.800781 92.847656 31.820312 92.910156 31.824219 C 92.972656 31.832031 93.039062 31.832031 93.046875 31.746094 C 93.054688 31.6875 93.003906 31.660156 92.960938 31.644531 C 92.707031 31.558594 92.453125 31.460938 92.191406 31.398438 C 92.011719 31.355469 91.832031 31.308594 91.65625 31.253906 C 91.269531 31.136719 90.878906 31.042969 90.46875 31.011719 C 89.78125 30.960938 89.097656 30.855469 88.421875 30.71875 C 87.492188 30.53125 86.671875 30.078125 85.855469 29.617188 C 85.363281 29.335938 84.875 29.054688 84.417969 28.71875 C 84.34375 28.664062 84.265625 28.609375 84.164062 28.617188 "/>
</g>
</g>
</g>
<g clip-path="url(#clip25)" clip-rule="nonzero">
<g clip-path="url(#clip26)" clip-rule="nonzero">
<g clip-path="url(#clip27)" clip-rule="nonzero">
<path style=" stroke:none;fill-rule:nonzero;fill:rgb(54.899597%,32.159424%,100%);fill-opacity:1;" d="M 99.140625 44.128906 C 99.328125 43.9375 99.355469 43.746094 99.429688 43.585938 C 99.882812 42.632812 100.214844 41.632812 100.574219 40.644531 C 100.828125 39.957031 100.921875 39.230469 101.109375 38.527344 C 101.308594 37.785156 101.5 37.042969 101.773438 36.328125 C 102.191406 35.253906 102.574219 34.167969 102.867188 33.050781 C 102.886719 32.976562 102.945312 32.894531 102.871094 32.796875 C 102.769531 32.800781 102.75 32.898438 102.726562 32.96875 C 102.625 33.246094 102.523438 33.527344 102.4375 33.8125 C 102.15625 34.746094 101.839844 35.671875 101.523438 36.597656 C 101.199219 37.542969 100.960938 38.515625 100.742188 39.496094 C 100.671875 39.808594 100.597656 40.121094 100.488281 40.425781 C 100.101562 41.523438 99.679688 42.605469 99.230469 43.679688 C 99.179688 43.796875 99.105469 43.914062 99.140625 44.128906 "/>
</g>
</g>
</g>
<g clip-path="url(#clip28)" clip-rule="nonzero">
<g clip-path="url(#clip29)" clip-rule="nonzero">
<g clip-path="url(#clip30)" clip-rule="nonzero">
<path style=" stroke:none;fill-rule:nonzero;fill:rgb(54.899597%,32.159424%,100%);fill-opacity:1;" d="M 96.65625 38.320312 C 96.429688 38.101562 96.21875 37.945312 95.972656 37.839844 C 94.59375 37.261719 93.171875 36.84375 91.6875 36.632812 C 91.140625 36.554688 90.585938 36.488281 90.0625 36.300781 C 89.183594 35.992188 88.304688 35.675781 87.503906 35.179688 C 87.347656 35.085938 87.191406 34.988281 87.015625 34.9375 C 86.957031 35.058594 87.050781 35.085938 87.101562 35.117188 C 87.679688 35.464844 88.234375 35.863281 88.910156 36.011719 C 88.992188 36.03125 89.078125 36.0625 89.152344 36.105469 C 89.90625 36.53125 90.742188 36.683594 91.585938 36.800781 C 92.757812 36.964844 93.890625 37.292969 95.019531 37.640625 C 95.492188 37.789062 95.949219 37.964844 96.359375 38.246094 C 96.425781 38.292969 96.496094 38.359375 96.65625 38.320312 "/>
</g>
</g>
</g>
<g clip-path="url(#clip31)" clip-rule="nonzero">
<g clip-path="url(#clip32)" clip-rule="nonzero">
<g clip-path="url(#clip33)" clip-rule="nonzero">
<path style=" stroke:none;fill-rule:nonzero;fill:rgb(54.899597%,32.159424%,100%);fill-opacity:1;" d="M 98.675781 44.761719 C 98.625 44.605469 98.488281 44.535156 98.375 44.449219 C 97.5625 43.832031 96.632812 43.5625 95.625 43.5 C 94.066406 43.402344 92.597656 42.972656 91.222656 42.234375 C 90.875 42.042969 90.597656 41.757812 90.285156 41.519531 C 90.222656 41.46875 90.179688 41.378906 90.070312 41.398438 C 90.078125 41.542969 90.199219 41.597656 90.28125 41.679688 C 90.796875 42.195312 91.425781 42.53125 92.085938 42.808594 C 93.230469 43.285156 94.417969 43.597656 95.65625 43.691406 C 96.625 43.761719 97.515625 44.039062 98.308594 44.605469 C 98.398438 44.667969 98.5 44.71875 98.597656 44.769531 C 98.613281 44.777344 98.640625 44.765625 98.675781 44.761719 "/>
</g>
</g>
</g>
<path style="fill:none;stroke-width:1.825;stroke-linecap:butt;stroke-linejoin:miter;stroke:rgb(32.159424%,44.309998%,100%);stroke-opacity:1;stroke-miterlimit:4;" d="M 29.196839 9.626514 C 25.501175 9.661803 11.899079 9.459696 7.812034 9.722756 C 1.65901 10.114137 1.197052 17.704363 3.275863 20.389494 C 5.389962 20.819372 7.754289 20.784083 9.926133 20.617265 C 9.8331 26.81841 10.118616 33.529633 10.449044 35.348592 C 11.876623 42.877866 18.979227 43.949352 21.699646 40.930585 C 22.318798 36.487447 22.543361 26.68688 22.318798 20.652554 C 22.485616 20.652554 23.290835 20.591601 24.420065 20.521024 C 31.692696 20.06869 30.919558 11.897808 29.196839 9.626514 Z M 71.055367 10.505518 C 70.699274 15.009608 69.666285 26.067728 68.787281 31.069065 C 68.69104 31.069065 68.585175 31.069065 68.488934 31.094729 C 66.673182 24.418794 65.187859 18.060456 63.526093 12.799268 C 62.005481 7.868508 55.967947 9.235133 53.44001 10.114137 C 52.987676 11.766278 51.001898 18.833594 49.911164 23.31202 C 49.292012 25.913742 48.676068 28.409598 48.092205 30.905455 C 47.960675 30.905455 47.867642 30.905455 47.758568 30.905455 C 47.344731 27.245079 47.534005 21.496269 46.725579 14.069652 C 45.942817 6.80023 35.952975 8.654478 34.753168 12.703026 C 35.702748 20.819372 36.414933 32.365114 38.102363 36.583688 C 41.666497 45.434675 51.361199 42.297211 55.778673 40.895296 C 56.420281 35.999825 57.039433 30.844502 57.523847 26.946731 C 57.655377 26.946731 57.751618 26.946731 57.918436 26.946731 C 58.345106 31.094729 58.463803 33.04201 59.246566 35.964536 C 61.944529 46.085908 72.162141 42.618015 76.56999 41.216101 C 78.350454 36.153811 81.725313 22.054468 82.415042 16.53022 C 83.281214 9.270422 76.377508 7.903796 71.055367 10.505518 Z M 86.800435 34.504877 C 87.060287 38.922351 88.391624 41.097403 91.44568 41.870541 C 93.774718 42.415908 102.243948 42.354955 104.941911 41.998863 C 111.094935 41.193644 111.93865 35.573155 109.478082 32.105262 C 106.010189 32.105262 102.542296 32.105262 99.06157 32.105262 C 98.811343 32.105262 98.548284 32.105262 98.323721 32.105262 C 98.323721 31.428365 98.323721 30.844502 98.323721 30.132317 C 101.342488 30.132317 102.304901 30.190061 103.966666 30.132317 C 108.730608 29.894922 110.228763 26.141513 108.278274 21.826697 C 105.522566 20.947693 100.165137 21.303786 98.288432 21.303786 C 98.288432 20.652554 98.288432 20.142475 98.288432 19.619564 C 102.468511 19.619564 103.219192 19.619564 104.964367 19.619564 C 112.782365 19.619564 111.93865 11.577004 110.738842 9.854285 C 104.964367 9.401951 92.741728 9.270422 87.323346 9.818997 C 86.668906 15.304748 86.540584 30.06174 86.800435 34.504877 Z M 114.915712 32.307369 C 113.513798 39.6602 117.183798 44.75457 125.155781 41.835253 C 125.620947 40.147823 126.131026 38.53097 126.689225 37.164344 C 128.768036 37.234921 131.036122 37.106599 133.079644 37.199632 C 135.633245 46.085908 145.530054 42.059815 145.992012 38.53097 C 144.756916 31.710673 141.289023 20.20022 139.531016 15.9239 C 135.835352 6.896471 126.166314 8.936785 121.723177 10.399652 C 119.644366 14.461033 116.173265 25.78542 114.915712 32.307369 Z M 127.853744 27.790446 C 128.469688 25.13098 129.08884 22.599835 129.669496 20.033402 C 129.765737 20.033402 129.861978 20.033402 129.967844 20.010945 C 130.574164 22.599835 131.225396 25.166268 131.844548 27.790446 C 130.513211 27.790446 129.242826 27.790446 127.853744 27.790446 Z M 163.289772 31.200594 C 166.568391 28.339021 173.125628 21.75612 175.169151 18.548078 C 177.472524 14.913367 176.500488 11.147126 175.063285 9.533481 C 171.438198 9.533481 158.846635 9.331375 154.855831 9.591226 C 148.818296 9.947319 148.369171 17.348271 150.412693 19.975657 C 151.38473 20.164931 155.734834 19.844127 160.271005 19.808839 C 154.461242 25.224013 149.771085 29.740936 150.127177 35.512202 C 150.541015 41.809588 156.992387 42.130392 160.271005 42.130392 C 160.271005 42.130392 167.091302 42.319667 171.569728 42.034151 C 176.035322 41.703723 179.708529 36.320629 177.142096 31.48611 C 172.115095 30.866958 166.792954 31.226259 163.289772 31.200594 Z M 196.977418 22.019179 C 196.919673 21.983891 196.810599 21.983891 196.717566 21.983891 C 196.586037 21.663087 196.454507 21.364739 196.326185 21.043935 C 195.126378 18.38126 193.211177 13.392755 191.822095 10.791034 C 190.134665 7.608656 183.423442 7.846051 181.248389 13.059119 C 183.554971 18.679608 187.699761 26.81841 190.323939 31.842203 C 190.55171 32.307369 190.657576 32.554388 190.68324 33.112587 C 190.68324 33.529633 190.622287 36.262884 190.657576 37.032814 C 190.943091 44.103338 201.029174 43.03506 202.431088 41.155148 C 202.431088 40.670733 202.562618 36.227596 202.52733 33.375647 C 202.52733 32.721206 202.69094 32.175839 203.011744 31.582351 C 205.863693 25.42612 208.003457 22.433017 210.152845 17.444512 C 212.613413 11.634748 207.134078 8.096279 202.492041 9.366663 C 200.932933 12.346934 197.525993 20.85466 196.977418 22.019179 Z M 196.977418 22.019179 " transform="matrix(1.217643,0,0,1.217643,109.448668,61.708028)"/>
</g>
</svg>
